# xmcd CD database file
#
# Track frame offsets:
#	150
#	20403
#	45426
#	77598
#	103687
#	115094
#	131595
#	149810
#	173664
#
# Disc length: 2742 seconds
#
# Revision: 0
# Processed by: cddbd v1.5.1PL0 Copyright (c) Steve Scherf et al.
# Submitted via: CDex 1.51
#
DISCID=710ab409
DTITLE=Sanctuary 01  - A Mantle Green
DYEAR=2002
DGENRE=New Age
TTITLE0=A Song From The Forest
TTITLE1=Morning Air
TTITLE2=Echoes of Cameron Lake
TTITLE3=By Peaceful Waters
TTITLE4=The Moss Bank
TTITLE5=Rain on the Widwood
TTITLE6=Uisce Beatha (The Water Of Life)
TTITLE7=A Perfect Day
TTITLE8=A Mantle of Green
EXTD=YEAR: 2002
EXTT0=
EXTT1=
EXTT2=
EXTT3=
EXTT4=
EXTT5=
EXTT6=
EXTT7=
EXTT8=
PLAYORDER=
